<svg width="32" height="32" viewBox="0 0 32 32" fill="none" xmlns="http://www.w3.org/2000/svg">
  <!-- Background (transparent) -->
  <rect width="32" height="32" fill="none"/>

  <!-- Main C shape (thick arc with gradient) -->
  <defs>
    <linearGradient id="grad" x1="0%" y1="0%" x2="100%" y2="100%">
      <stop offset="0%" stop-color="#FF8800"/>
      <stop offset="50%" stop-color="#FFAA00"/>
      <stop offset="100%" stop-color="#00FFFF"/>
    </linearGradient>
  </defs>

  <!-- Outer C -->
  <path d="M8 16C8 10.5 11.5 6 16 6C18.5 6 20.8 7.5 22 10L20 11.5C19.2 9.8 17.7 9 16 9C13.2 9 11 12.1 11 16C11 19.9 13.2 23 16 23C17.7 23 19.2 22.2 20 20.5L22 22C20.8 24.5 18.5 26 16 26C11.5 26 8 21.5 8 16Z" fill="url(#grad)"/>

  <!-- Inner highlight -->
  <path d="M10 16C10 12.7 12.7 10 16 10C17.5 10 18.9 10.7 19.8 11.8L18.2 13.2C17.7 12.5 17 12 16 12C13.8 12 12 13.8 12 16C12 18.2 13.8 20 16 20C17 20 17.7 19.5 18.2 18.8L19.8 20.2C18.9 21.3 17.5 22 16 22C12.7 22 10 19.3 10 16Z" fill="#00FFFF" opacity="0.6"/>

  <!-- Gear teeth accents -->
  <circle cx="24" cy="8" r="2" fill="#00FFFF" opacity="0.4"/>
  <circle cx="26" cy="14" r="1.5" fill="#FF8800" opacity="0.5"/>
  <circle cx="22" cy="20" r="1.5" fill="#00FFFF" opacity="0.4"/>
  <circle cx="16" cy="26" r="2" fill="#FF8800" opacity="0.5"/>

  <!-- Circuit dots -->
  <circle cx="6" cy="10" r="1" fill="#00FFFF" opacity="0.6"/>
  <circle cx="4" cy="16" r="1" fill="#FF8800" opacity="0.6"/>
  <circle cx="6" cy="22" r="1" fill="#00FFFF" opacity="0.6"/>
</svg>